# xmcd
#
# Track frame offsets:
#	150
#	15184
#	31194
#	43664
#	60365
#	73198
#	87720
#	105312
#	123041
#	137044
#	151934
#
# Disc length: 2200 seconds
#
# Revision: 0
# Processed by: cddbd v1.5.1PL2 Copyright (c) Steve Scherf et al.
# Submitted via: dBpowerAMP V4.0
#
DISCID=8008960b
DTITLE=Powder Blues Band - blues and jazz BLAZZ
DYEAR=2004
DGENRE=Blues
TTITLE0=Cooking With The Blues
TTITLE1=Runnin' With the Blues
TTITLE2=Well Do It
TTITLE3=Things Are Getting Better
TTITLE4=Send Out for a Bucket of Beer
TTITLE5=Take the A Train
TTITLE6=Ain't That Loving You
TTITLE7=Let's Get Loose
TTITLE8=Disappearing Baby Blues
TTITLE9=Blame It On The Blues
TTITLE10=Swami Swing
EXTD=BWRCD 12002 Blue Wave 
EXTT0=
EXTT1=
EXTT2=
EXTT3=
EXTT4=
EXTT5=
EXTT6=
EXTT7=
EXTT8=
EXTT9=
EXTT10=
PLAYORDER=
